Coordinates
version=1
nRows=17
nColumns=36
inDegrees=yes

Units are S.I. units (second, meters, Newtons, ...)
If the header above contains a line with 'inDegrees', this indicates whether rotational values are in degrees (yes) or radians (no).

endheader
time	pelvis_tilt	pelvis_list	pelvis_rotation	pelvis_tx	pelvis_ty	pelvis_tz	hip_flexion_r	hip_adduction_r	hip_rotation_r	knee_angle_r	knee_angle_r_beta	ankle_angle_r	subtalar_angle_r	mtp_angle_r	hip_flexion_l	hip_adduction_l	hip_rotation_l	knee_angle_l	knee_angle_l_beta	ankle_angle_l	subtalar_angle_l	mtp_angle_l	lumbar_extension	lumbar_bending	lumbar_rotation	arm_flex_r	arm_add_r	arm_rot_r	elbow_flex_r	pro_sup_r	arm_flex_l	arm_add_l	arm_rot_l	elbow_flex_l	pro_sup_l
      1.98000000	    -32.75900217	      5.61318650	    -10.05645611	     -0.24035530	      0.76140572	     -0.60801007	     89.94899928	     -4.49971064	     -4.79049162	     90.53456005	      1.58012616	     20.85515879	    -11.64844408	     -7.50242947	     91.32866533	    -12.05446307	     -0.31906954	     94.01211855	      1.64082101	     15.52405427	     -3.83948361	     -7.50242947	    -44.96800535	     -1.20532059	      0.82296845	     48.14936373	    -33.65778604	      5.57695215	     97.83636922	    113.82471403	     78.15077422	    -19.96449595	     33.13684907	     64.24190851	    106.76058878
      1.99000000	    -31.98711819	      5.51814609	    -10.04022106	     -0.23550740	      0.76832606	     -0.60717651	     88.13094051	     -4.33175783	     -4.59452820	     89.65407955	      1.56475888	     20.88453093	    -11.83949969	     -7.50240334	     89.54265859	    -11.66589392	     -0.30029389	     93.19340156	      1.62653170	     15.44180317	     -4.07021312	     -7.50240334	    -44.77453269	     -1.08356718	      0.81673780	     43.95833772	    -35.49677100	      2.72938583	     98.40785667	    113.93609045	     74.00477781	    -21.85789620	     30.42677161	     65.74060598	    107.17553070
      2.00000000	    -31.43279294	      5.52061937	     -9.91494814	     -0.23076059	      0.77427744	     -0.60672421	     86.65319966	     -4.24591151	     -4.26124060	     88.90074053	      1.55161063	     21.00833960	    -11.94235675	     -7.50237767	     88.00740089	    -11.13098398	     -0.34215607	     92.40005569	      1.61268520	     15.37148339	     -4.42340177	     -7.50237767	    -44.12339284	     -0.89194130	      0.54650363	     39.55158414	    -37.25574064	     -0.47976430	     99.04866986	    114.01882001	     69.83713864	    -24.39828469	     28.00381294	     67.77445431	    107.62789314
      2.01000000	    -30.86707662	      5.65910517	     -9.85478799	     -0.22591051	      0.77998193	     -0.60625834	     85.28015689	     -4.12493927	     -3.73232560	     88.27771929	      1.54073686	     21.13163578	    -11.86781951	     -7.50231861	     86.41888566	    -10.59716779	     -0.53585226	     91.58573093	      1.59847255	     15.12754543	     -5.14781719	     -7.50231861	    -43.28075327	     -0.82575035	      0.21238677	     34.82143209	    -38.98640904	     -4.36461683	    100.07771580	    114.20308811	     65.80982343	    -27.16894036	     25.32690691	     70.02598347	    108.50650783
      2.02000000	    -30.08255565	      5.82334238	     -9.58272080	     -0.22101466	      0.78647367	     -0.60638687	     83.64459296	     -4.29193337	     -3.20178269	     87.58421318	      1.52863289	     21.43239425	    -11.97326506	     -7.50220464	     84.52158961	     -9.69659825	     -0.77462787	     90.58079891	      1.58093318	     14.90591778	     -6.21108567	     -7.50220464	    -42.61141111	     -0.70775821	     -0.31383373	     29.97741205	    -40.82198702	     -8.82816683	    101.26446191	    114.33052853	     62.47982010	    -30.50187628	     23.62805287	     72.93061169	    109.90619571
      2.03000000	    -29.37691566	      6.11342998	     -9.02220027	     -0.21639690	      0.79278121	     -0.60734756	     82.21141083	     -4.79753390	     -2.61435569	     87.01251947	      1.51865496	     21.56411033	    -12.27381518	     -7.50215725	     82.71294914	     -8.39564402	     -1.01281097	     89.43650587	      1.56096150	     14.81103541	     -6.93845926	     -7.50215725	    -41.62343047	     -0.45843300	     -1.38474366	     25.38606509	    -42.53829388	    -13.30847048	    102.73015833	    114.24897380	     59.05868270	    -34.31480653	     21.41282859	     76.78263059	    110.48535017
      2.04000000	    -28.71227504	      6.32101590	     -8.44641450	     -0.21194182	      0.79925889	     -0.60824639	     80.76444293	     -5.25614066	     -2.16220340	     86.33898601	      1.50689958	     21.66328659	    -12.80083107	     -7.50212274	     80.94735779	     -7.11559605	     -1.04694093	     88.20902786	      1.53953797	     14.73452135	     -7.60560035	     -7.50212274	    -40.43755759	     -0.13280530	     -2.47952206	     20.80768033	    -44.33006913	    -18.32250641	    104.93664008	    114.11079896	     55.78171066	    -38.48306102	     18.94502900	     81.15910524	    110.94510975
      2.05000000	    -28.09362478	      6.46948208	     -8.27591624	     -0.20746520	      0.80585066	     -0.60769039	     79.32128893	     -5.07092937	     -1.57996511	     85.53939868	      1.49294415	     21.23083842	    -13.85917024	     -7.50188817	     79.15974707	     -6.33170302	     -0.89152416	     86.97385559	      1.51798014	     14.57769341	     -8.21754471	     -7.50188817	    -39.01061987	     -0.19016546	     -2.02608218	     13.57074786	    -46.51563667	    -26.63912160	    108.63082770	    113.63693437	     53.98059411	    -41.38031006	     17.63120026	     84.72402020	    111.65312778
      2.06000000	    -27.52512440	      6.56958008	     -8.31636655	     -0.20293267	      0.81303159	     -0.60651337	     77.82984440	     -4.63124353	     -1.05364942	     84.53129979	      1.47534950	     20.56551533	    -15.03268327	     -7.50169841	     77.32489523	     -5.84790201	     -0.68849315	     85.62718007	      1.49447622	     14.53616080	     -8.47522506	     -7.50169841	    -37.38927654	     -0.26720575	     -2.08843568	      7.65632681	    -48.48812188	    -33.95377335	    112.25131955	    113.33992288	     51.74370423	    -45.42404817	     15.38966629	     89.42976368	    111.65482876
      2.07000000	    -26.73014529	      6.74806201	     -8.12784526	     -0.19802565	      0.82194423	     -0.60676510	     75.98454303	     -4.69312513	     -0.51697263	     83.37156386	      1.45510829	     20.13416292	    -15.54625789	     -7.50146785	     75.08740549	     -4.89002262	     -0.55284814	     83.91613077	      1.46461278	     14.21879719	     -9.09918343	     -7.50146785	    -35.95889933	     -0.19603103	     -2.22819809	      1.42602881	    -50.78558046	    -42.30425670	    116.26186295	    113.26208082	     50.24530365	    -49.18172192	     13.10481589	     93.99202055	    111.38556784
      2.08000000	    -25.52579823	      6.95877371	     -7.97268679	     -0.19277909	      0.83348787	     -0.60773875	     73.50563455	     -4.94901900	      0.04327148	     81.83496673	      1.42828961	     19.58968627	    -15.88780027	     -7.50143219	     72.20752611	     -3.75361877	     -0.51824525	     81.83102810	      1.42822087	     13.78647201	     -9.85354175	     -7.50143219	    -34.96907950	     -0.09678994	     -3.37991231	     -2.02263449	    -53.63120039	    -48.46743728	    119.71284677	    113.02444709	     47.97743813	    -53.98572333	      9.14656675	     99.25389281	    111.31423985
      2.09000000	    -24.37942143	      6.79387021	     -8.00575093	     -0.18774955	      0.84629020	     -0.60809417	     70.84574001	     -4.83471360	      0.19872345	     79.92458233	      1.39494711	     18.27201817	    -16.83372385	     -7.50115068	     69.37315235	     -3.08390138	     -0.26479103	     79.63024093	      1.38980989	     12.75470239	    -11.00424339	     -7.50115068	    -34.00298970	      0.14447997	     -2.29153314	    -10.57951243	    -56.72403470	    -61.02517207	    123.78345294	    112.77286679	     50.01286984	    -56.88261336	      9.42267195	    102.63837602	    110.86983600
      2.10000000	    -23.45936914	      6.67657618	     -8.12167005	     -0.18269268	      0.85977257	     -0.60810694	     68.37493508	     -4.71339662	      0.24839005	     77.79001503	      1.35769189	     16.78653441	    -17.59710261	     -7.50110861	     66.75096610	     -2.62282903	     -0.18487130	     77.32769265	      1.34962284	     11.55524137	    -11.95271355	     -7.50110861	    -32.60564563	      0.34882922	     -3.32970987	    -13.23643371	    -60.96495973	    -67.30059770	    126.39392075	    112.33730945	     49.10199453	    -62.48258174	      6.37879863	    107.29528146	    111.00531137
      2.11000000	    -22.68601207	      6.46500115	     -8.15963932	     -0.17777265	      0.87403963	     -0.60836827	     65.95988603	     -4.73313669	     -0.03246660	     75.41910240	      1.31631166	     14.92273738	    -18.35829684	     -7.50069373	     64.32337718	     -2.23924940	     -0.06946693	     74.92922252	      1.30776164	      9.87219518	    -12.84213698	     -7.50069373	    -31.07112584	      0.59181168	     -1.71025257	    -26.29000670	    -64.39900999	    -84.76805522	    129.25099901	    111.17168652	     56.30689710	    -64.99063385	     11.61935478	    109.37013994	    111.10282538
      2.12000000	    -21.96100131	      6.23378530	     -8.36494436	     -0.17265005	      0.88987824	     -0.60809075	     63.41387175	     -4.63005262	     -0.39881047	     72.62555975	      1.26755514	     12.42988295	    -19.28853185	     -7.50065011	     61.79240001	     -2.12733276	     -0.09327432	     72.21444731	      1.26037987	      7.64017354	    -13.98371652	     -7.50065011	    -29.34729792	      0.83940985	     -3.45523471	    -28.87899920	    -70.79580553	    -90.23205176	    130.27302888	    110.93135648	     58.52142348	    -71.92441564	     11.53582011	    113.46687237	    110.85379266
      2.13000000	    -20.95554411	      5.86486821	     -8.86210522	     -0.16754890	      0.90746390	     -0.60677897	     60.35246167	     -4.27111695	     -0.84889028	     69.42368985	      1.21167197	     10.29403458	    -19.57176017	     -7.50000590	     58.81091522	     -2.50759414	     -0.23312189	     69.28266397	      1.20921060	      5.85165942	    -13.93899688	     -7.50000590	    -28.06176986	      1.04077019	      0.33819214	    -58.60758570	    -71.17475384	   -124.18245464	    132.00654881	    109.97621558	     76.75756439	    -70.54194435	     27.98761173	    113.38208516	    110.23001578
      2.14000000	    -19.98306347	      5.54514604	     -9.33894680	     -0.16201694	      0.92664920	     -0.60564352	     57.09088015	     -4.14332618	     -1.52001210	     65.73127302	      1.14722714	      7.70299315	    -19.70505389	     -7.50000274	     55.62637333	     -2.86047524	     -0.45762575	     65.86246841	      1.14951693	      3.44901610	    -13.91204072	     -7.50000274	    -26.59543107	      1.31602023	      1.55561865	    -82.45186985	    -72.33904855	   -151.04917875	    132.31027666	    109.05766817	     91.84272082	    -71.29061026	     41.44067211	    114.65505817	    109.41593885
